<svg id="Capa_1" enable-background="new 0 0 512 512" height="512" viewBox="0 0 512 512" width="512" xmlns="http://www.w3.org/2000/svg"><g><path d="m191.185 408.692h-11.253c-21.015 0-38.051 17.036-38.051 38.051v65.257h228.238v-65.256c0-21.015-17.036-38.051-38.051-38.051h-140.883z" fill="#c4e2ff"/><path d="m332.068 408.692h-26.282c21.015 0 38.051 17.036 38.051 38.051v65.257h26.282v-65.257c0-21.015-17.036-38.051-38.051-38.051z" fill="#b3dafe"/><path d="m220.746 335.414v57.147l35.124 23.416 35.124-23.416v-57.147z" fill="#ffbfb1"/><path d="m340.643 252.364c-.393 0-.782.014-1.171.03-6.709-40.115-41.582-70.689-83.601-70.689-42.02 0-76.893 30.574-83.601 70.689-.389-.016-.778-.03-1.171-.03-15.898 0-28.786 12.887-28.786 28.786s12.888 28.786 28.786 28.786c.393 0 .782-.014 1.171-.03 6.709 40.115 41.582 70.689 83.601 70.689 42.02 0 76.893-30.574 83.601-70.689.389.016.778.03 1.171.03 15.898 0 28.786-12.888 28.786-28.786s-12.888-28.786-28.786-28.786z" fill="#ffcebf"/><g><g><path d="m214.491 302.836c-4.268 0-7.726-3.459-7.726-7.726v-15.611c0-4.268 3.459-7.726 7.726-7.726 4.268 0 7.726 3.459 7.726 7.726v15.611c0 4.267-3.458 7.726-7.726 7.726z" fill="#384949"/></g><g><path d="m297.249 302.836c-4.268 0-7.726-3.459-7.726-7.726v-15.611c0-4.268 3.459-7.726 7.726-7.726 4.268 0 7.726 3.459 7.726 7.726v15.611c0 4.267-3.459 7.726-7.726 7.726z" fill="#384949"/></g></g><g><path d="m255.87 347.338c-14.188 0-25.73-11.542-25.73-25.73 0-4.268 3.459-7.726 7.726-7.726s7.726 3.459 7.726 7.726c0 5.667 4.611 10.278 10.278 10.278s10.277-4.611 10.277-10.278c0-4.268 3.459-7.726 7.726-7.726s7.726 3.459 7.726 7.726c.001 14.188-11.542 25.73-25.729 25.73z" fill="#ffb09e"/></g><path d="m220.746 392.561-29.691 16.131 41.889 31.222 22.926-23.937z" fill="#b3dafe"/><path d="m290.994 392.561 29.691 16.131-41.889 31.222-22.926-23.937z" fill="#b3dafe"/><path d="m255.87 415.977-18.004 18.798 6.526 25.571h22.956l6.525-25.571z" fill="#fd544d"/><path d="m244.369 460.346-10.146 51.654h43.247l-10.147-51.654z" fill="#fd544d"/><g><path d="m255.87 168.879c-4.268 0-7.726-3.459-7.726-7.726v-21.858c0-4.268 3.459-7.726 7.726-7.726 4.268 0 7.726 3.459 7.726 7.726v21.858c.001 4.268-3.458 7.726-7.726 7.726z" fill="#8ac9fe"/></g><path d="m117.776 59.545 8.83 17.891c.75 1.52 2.2 2.573 3.877 2.817l19.744 2.869c4.224.614 5.91 5.804 2.854 8.783l-14.287 13.926c-1.214 1.183-1.767 2.887-1.481 4.558l3.373 19.665c.721 4.207-3.694 7.414-7.471 5.428l-17.66-9.284c-1.5-.789-3.292-.789-4.792 0l-17.66 9.284c-3.778 1.986-8.193-1.222-7.471-5.428l3.373-19.665c.286-1.67-.267-3.375-1.481-4.558l-14.289-13.925c-3.056-2.979-1.37-8.169 2.854-8.783l19.744-2.869c1.677-.244 3.127-1.297 3.877-2.817l8.83-17.891c1.889-3.828 7.347-3.828 9.236-.001z" fill="#fe9738"/><g><path d="m212.408 168.88c-3.685 0-6.948-2.646-7.603-6.4-2.956-16.955-10.332-28.338-21.926-33.833-8.84-4.191-17.143-3.428-17.225-3.422-4.229.488-8.039-2.576-8.516-6.818-.477-4.24 2.6-8.066 6.84-8.543.463-.059 46.541-4.587 56.05 49.962.732 4.204-2.081 8.205-6.285 8.939-.447.078-.894.115-1.335.115z" fill="#8ac9fe"/></g><path d="m394.224 59.545-8.83 17.891c-.75 1.52-2.2 2.573-3.877 2.817l-19.744 2.869c-4.224.614-5.91 5.804-2.854 8.783l14.287 13.926c1.214 1.183 1.767 2.887 1.481 4.558l-3.373 19.665c-.721 4.207 3.694 7.414 7.471 5.428l17.66-9.284c1.5-.789 3.292-.789 4.792 0l17.66 9.284c3.778 1.986 8.193-1.222 7.471-5.428l-3.373-19.665c-.286-1.67.267-3.375 1.481-4.558l14.287-13.926c3.056-2.979 1.37-8.169-2.854-8.783l-19.744-2.869c-1.677-.244-3.127-1.297-3.877-2.817l-8.83-17.891c-1.887-3.827-7.345-3.827-9.234 0z" fill="#fe9738"/><g><path d="m299.592 168.88c-.441 0-.887-.037-1.336-.116-4.203-.733-7.017-4.734-6.285-8.939 9.51-54.549 55.582-50.017 56.05-49.962 4.24.477 7.292 4.301 6.815 8.541-.475 4.225-4.278 7.264-8.495 6.82-.222-.019-8.458-.733-17.221 3.422-11.594 5.495-18.97 16.878-21.926 33.833-.655 3.755-3.917 6.401-7.602 6.401z" fill="#8ac9fe"/></g><path d="m239.117 82.021h33.501c2.183-6.498 5.801-12.42 10.581-17.333 7.033-7.23 11.223-17.237 10.757-28.224-.835-19.686-16.9-35.681-36.59-36.434-21.736-.832-39.62 16.542-39.62 38.094 0 10.335 4.116 19.704 10.795 26.569 4.779 4.911 8.393 10.832 10.576 17.328z" fill="#fdb97e"/><path d="m239.117 82.021h33.501v13.719c0 9.251-7.499 16.75-16.75 16.75-9.251 0-16.75-7.499-16.75-16.75v-13.719z" fill="#537983"/><g><path d="m206.987 321.385h-11.383c-4.144 0-7.504-3.36-7.504-7.504s3.36-7.504 7.504-7.504h11.383c4.144 0 7.504 3.36 7.504 7.504s-3.36 7.504-7.504 7.504z" fill="#ffb09e"/></g><path d="m340.643 252.364c-.393 0-.782.014-1.171.03-6.709-40.115-41.582-70.689-83.601-70.689-4.98 0-9.856.443-14.601 1.267 35.285 6.128 63.087 34.062 69.001 69.422.389-.016.778-.03 1.171-.03 15.898 0 28.786 12.888 28.786 28.786s-12.888 28.786-28.786 28.786c-.393 0-.782-.014-1.171-.03-5.913 35.36-33.715 63.293-69.001 69.422 4.745.824 9.62 1.267 14.601 1.267 42.02 0 76.893-30.574 83.601-70.689.389.016.778.03 1.171.03 15.898 0 28.786-12.888 28.786-28.786s-12.888-28.786-28.786-28.786z" fill="#ffbfb1"/><path d="m290.994 392.561-11.801 7.868 15.21 8.263-26.554 19.792 10.947 11.43 41.889-31.222z" fill="#8ac9fe"/><path d="m153.69 181.704c-1.819 5.917-2.802 12.201-2.802 18.714v51.975h120.409c12.32 0 23.552-4.641 32.057-12.264 5.946 7.47 15.111 12.264 25.401 12.264h32.099v-51.07c0-6.998-1.522-13.636-4.234-19.619z" fill="#c4573a"/><g><path d="m356.618 181.704h-32.122c2.712 5.984 4.234 12.622 4.234 19.62v51.069c.008 0 .016.001.023.001h32.099v-51.069c0-6.999-1.522-13.637-4.234-19.621z" fill="#a74b30"/></g><g><path d="m316.135 321.385h-11.383c-4.144 0-7.504-3.36-7.504-7.504s3.36-7.504 7.504-7.504h11.383c4.144 0 7.504 3.36 7.504 7.504s-3.359 7.504-7.504 7.504z" fill="#ffb09e"/></g><path d="m293.955 36.463c-.836-19.687-16.9-35.681-36.59-36.435-4.622-.177-9.067.476-13.206 1.811 14.794 4.795 25.748 18.461 26.434 34.623.466 10.987-3.724 20.994-10.757 28.224-4.78 4.913-8.397 10.836-10.58 17.333h23.361c2.183-6.498 5.8-12.42 10.581-17.333 7.034-7.228 11.224-17.236 10.757-28.223z" fill="#fea95c"/><path d="m249.257 82.021v13.719c0 4.705-1.946 8.95-5.069 11.993 3.018 2.94 7.135 4.758 11.681 4.758 9.251 0 16.75-7.499 16.75-16.751v-13.719z" fill="#3e5959"/><g><path d="m153.081 91.905c3.056-2.979 1.37-8.17-2.854-8.783l-19.744-2.869c-1.677-.244-3.127-1.297-3.877-2.817l-8.83-17.891c-1.889-3.827-7.346-3.827-9.235 0l-7.063 14.311 1.767 3.58c.75 1.52 2.2 2.573 3.877 2.817l19.744 2.869c4.224.614 5.91 5.804 2.854 8.783l-14.287 13.927c-1.214 1.183-1.767 2.887-1.481 4.558l2.821 16.449 16.442 8.644c3.778 1.986 8.193-1.222 7.471-5.428l-3.373-19.664c-.286-1.671.267-3.375 1.481-4.558z" fill="#fe860a"/></g><g><path d="m438.765 91.905c3.056-2.979 1.37-8.17-2.854-8.783l-19.744-2.869c-1.677-.244-3.127-1.297-3.877-2.817l-8.83-17.891c-1.889-3.827-7.346-3.827-9.235 0l-7.063 14.311 1.767 3.58c.75 1.52 2.2 2.573 3.877 2.817l19.744 2.869c4.224.614 5.91 5.804 2.854 8.783l-14.287 13.927c-1.214 1.183-1.767 2.887-1.481 4.558l2.821 16.449 16.442 8.644c3.778 1.986 8.193-1.222 7.471-5.428l-3.373-19.664c-.286-1.671.267-3.375 1.481-4.558z" fill="#fe860a"/></g></g></svg>